<svg width="16" height="16" viewBox="0 0 16 16" fill="none" xmlns="http://www.w3.org/2000/svg">
<path d="M14.6666 8.00004H13.0133C12.722 7.99942 12.4384 8.09424 12.2061 8.27002C11.9737 8.44579 11.8053 8.69284 11.7266 8.97337L10.16 14.5467C10.1499 14.5813 10.1288 14.6117 10.1 14.6334C10.0711 14.655 10.036 14.6667 9.99998 14.6667C9.96392 14.6667 9.92883 14.655 9.89998 14.6334C9.87113 14.6117 9.85008 14.5813 9.83998 14.5467L6.15998 1.45337C6.14988 1.41875 6.12883 1.38834 6.09998 1.36671C6.07113 1.34507 6.03604 1.33337 5.99998 1.33337C5.96392 1.33337 5.92883 1.34507 5.89998 1.36671C5.87113 1.38834 5.85008 1.41875 5.83998 1.45337L4.27331 7.02671C4.19496 7.30614 4.02757 7.55238 3.79656 7.72805C3.56554 7.90371 3.28353 7.99921 2.99331 8.00004H1.33331" stroke="#FF8C42" stroke-width="1.33333" stroke-linecap="round" stroke-linejoin="round"/>
</svg>
