<svg width="20" height="20" viewBox="0 0 20 20" fill="none" xmlns="http://www.w3.org/2000/svg">
<path d="M7.08329 12.0833C7.63583 12.0833 8.16573 11.8638 8.55643 11.4731C8.94713 11.0824 9.16663 10.5525 9.16663 10C9.16663 8.85 8.74996 8.33333 8.33329 7.5C7.43996 5.71417 8.14663 4.12167 9.99996 2.5C10.4166 4.58333 11.6666 6.58333 13.3333 7.91667C15 9.25 15.8333 10.8333 15.8333 12.5C15.8333 13.266 15.6824 14.0246 15.3893 14.7323C15.0961 15.4401 14.6664 16.0831 14.1247 16.6248C13.5831 17.1665 12.94 17.5961 12.2323 17.8893C11.5245 18.1824 10.766 18.3333 9.99996 18.3333C9.23391 18.3333 8.47537 18.1824 7.76764 17.8893C7.05991 17.5961 6.41684 17.1665 5.87517 16.6248C5.33349 16.0831 4.90381 15.4401 4.61066 14.7323C4.31751 14.0246 4.16663 13.266 4.16663 12.5C4.16663 11.5392 4.52746 10.5883 4.99996 10C4.99996 10.5525 5.21945 11.0824 5.61015 11.4731C6.00085 11.8638 6.53076 12.0833 7.08329 12.0833Z" stroke="#0A0A0A" stroke-width="1.66667" stroke-linecap="round" stroke-linejoin="round"/>
</svg>
