<svg width="16" height="16" viewBox="0 0 16 16" fill="none" xmlns="http://www.w3.org/2000/svg">
<g clip-path="url(#clip0_6_3397)">
<path d="M8.00004 13.96C9.00004 13.96 9.83337 14.6667 10.6667 14.6667C12.6667 14.6667 14.6667 9.33334 14.6667 6.52001C14.644 5.65649 14.2809 4.83696 13.6565 4.24004C13.0321 3.64312 12.197 3.31721 11.3334 3.33334C9.85337 3.33334 8.66671 4.29334 8.00004 4.66668C7.33337 4.29334 6.14671 3.33334 4.66671 3.33334C3.80254 3.31545 2.96651 3.64077 2.34173 4.23806C1.71695 4.83535 1.35436 5.65591 1.33337 6.52001C1.33337 9.33334 3.33337 14.6667 5.33337 14.6667C6.16671 14.6667 7.00004 13.96 8.00004 13.96Z" stroke="#FF8C42" stroke-width="1.33333" stroke-linecap="round" stroke-linejoin="round"/>
<path d="M6.66663 1.33337C7.33329 1.66671 7.99996 2.66671 7.99996 4.66671" stroke="#FF8C42" stroke-width="1.33333" stroke-linecap="round" stroke-linejoin="round"/>
</g>
<defs>
<clipPath id="clip0_6_3397">
<rect width="16" height="16" fill="white"/>
</clipPath>
</defs>
</svg>
