<svg width="12" height="12" viewBox="0 0 12 12" fill="none" xmlns="http://www.w3.org/2000/svg">
<path d="M7.7385 6.44501L8.496 10.708C8.50448 10.7582 8.49744 10.8098 8.47581 10.8559C8.45418 10.902 8.419 10.9404 8.37496 10.9659C8.33093 10.9915 8.28015 11.003 8.2294 10.9989C8.17866 10.9948 8.13037 10.9753 8.091 10.943L6.301 9.59951C6.21459 9.53495 6.10961 9.50007 6.00175 9.50007C5.89388 9.50007 5.78891 9.53495 5.7025 9.59951L3.9095 10.9425C3.87016 10.9747 3.82193 10.9942 3.77125 10.9983C3.72056 11.0024 3.66983 10.9909 3.62583 10.9654C3.58182 10.94 3.54664 10.9017 3.52496 10.8557C3.50328 10.8097 3.49614 10.7582 3.5045 10.708L4.2615 6.44501" stroke="#0A0A0A" stroke-linecap="round" stroke-linejoin="round"/>
<path d="M6 7C7.65685 7 9 5.65685 9 4C9 2.34315 7.65685 1 6 1C4.34315 1 3 2.34315 3 4C3 5.65685 4.34315 7 6 7Z" stroke="#0A0A0A" stroke-linecap="round" stroke-linejoin="round"/>
</svg>
