<svg width="16" height="16" viewBox="0 0 16 16" fill="none" xmlns="http://www.w3.org/2000/svg">
<g clip-path="url(#clip0_6_3086)">
<path d="M9.59999 9.60002L6.39999 6.40002" stroke="#FF6B35" stroke-width="1.33333" stroke-linecap="round" stroke-linejoin="round"/>
<path d="M12.438 14.3233C12.188 14.5734 11.8489 14.714 11.4953 14.714C11.1416 14.7141 10.8024 14.5737 10.5523 14.3237C10.3022 14.0737 10.1617 13.7345 10.1616 13.3809C10.1616 13.0273 10.302 12.6881 10.552 12.438L9.37402 13.6167C9.12392 13.8668 8.78471 14.0073 8.43102 14.0073C8.07732 14.0073 7.73811 13.8668 7.48802 13.6167C7.23792 13.3666 7.09741 13.0274 7.09741 12.6737C7.09741 12.32 7.23792 11.9808 7.48802 11.7307L11.7307 7.48802C11.9808 7.23792 12.32 7.09741 12.6737 7.09741C13.0274 7.09741 13.3666 7.23792 13.6167 7.48802C13.8668 7.73811 14.0073 8.07732 14.0073 8.43102C14.0073 8.78471 13.8668 9.12392 13.6167 9.37402L12.438 10.552C12.6881 10.302 13.0273 10.1616 13.3809 10.1616C13.7345 10.1617 14.0737 10.3022 14.3237 10.5523C14.5737 10.8024 14.7141 11.1416 14.714 11.4953C14.714 11.8489 14.5734 12.188 14.3233 12.438L12.438 14.3233Z" stroke="#FF6B35" stroke-width="1.33333" stroke-linecap="round" stroke-linejoin="round"/>
<path d="M14.3334 14.3334L13.4 13.4" stroke="#FF6B35" stroke-width="1.33333" stroke-linecap="round" stroke-linejoin="round"/>
<path d="M2.59999 2.59996L1.66666 1.66663" stroke="#FF6B35" stroke-width="1.33333" stroke-linecap="round" stroke-linejoin="round"/>
<path d="M4.26935 8.51205C4.01925 8.76214 3.68004 8.90265 3.32635 8.90265C2.97265 8.90265 2.63345 8.76214 2.38335 8.51205C2.13325 8.26195 1.99274 7.92274 1.99274 7.56905C1.99274 7.21535 2.13325 6.87614 2.38335 6.62605L3.56201 5.44805C3.43818 5.57184 3.29117 5.67003 3.12939 5.73701C2.9676 5.80399 2.79421 5.83844 2.61911 5.83841C2.26548 5.83835 1.92636 5.69781 1.67635 5.44771C1.55256 5.32388 1.45437 5.17687 1.38739 5.01509C1.32041 4.8533 1.28595 4.67991 1.28598 4.50481C1.28604 4.15118 1.42658 3.81206 1.67668 3.56205L3.56201 1.67671C3.81203 1.42661 4.15115 1.28607 4.50478 1.28601C4.67988 1.28598 4.85327 1.32044 5.01505 1.38742C5.17684 1.4544 5.32385 1.55259 5.44768 1.67638C5.57152 1.80017 5.66976 1.94714 5.7368 2.1089C5.80383 2.27066 5.83835 2.44404 5.83838 2.61914C5.83841 2.79424 5.80396 2.96763 5.73698 3.12942C5.67 3.2912 5.57181 3.43821 5.44801 3.56205L6.62601 2.38338C6.87611 2.13328 7.21532 1.99278 7.56902 1.99278C7.92271 1.99278 8.26192 2.13328 8.51201 2.38338C8.76211 2.63348 8.90262 2.97268 8.90262 3.32638C8.90262 3.68007 8.76211 4.01928 8.51201 4.26938L4.26935 8.51205Z" stroke="#FF6B35" stroke-width="1.33333" stroke-linecap="round" stroke-linejoin="round"/>
</g>
<defs>
<clipPath id="clip0_6_3086">
<rect width="16" height="16" fill="white"/>
</clipPath>
</defs>
</svg>
