<svg width="16" height="16" viewBox="0 0 16 16" fill="none" xmlns="http://www.w3.org/2000/svg">
<g clip-path="url(#clip0_6_3567)">
<path d="M8.00004 13.96C9.00004 13.96 9.83337 14.6667 10.6667 14.6667C12.6667 14.6667 14.6667 9.33333 14.6667 6.51999C14.644 5.65648 14.2809 4.83695 13.6565 4.24003C13.0321 3.64311 12.197 3.31719 11.3334 3.33333C9.85337 3.33333 8.66671 4.29333 8.00004 4.66666C7.33337 4.29333 6.14671 3.33333 4.66671 3.33333C3.80254 3.31543 2.96651 3.64076 2.34173 4.23805C1.71695 4.83534 1.35436 5.6559 1.33337 6.51999C1.33337 9.33333 3.33337 14.6667 5.33337 14.6667C6.16671 14.6667 7.00004 13.96 8.00004 13.96Z" stroke="#A0A0A0" stroke-width="1.33333" stroke-linecap="round" stroke-linejoin="round"/>
<path d="M6.66663 1.33333C7.33329 1.66666 7.99996 2.66666 7.99996 4.66666" stroke="#A0A0A0" stroke-width="1.33333" stroke-linecap="round" stroke-linejoin="round"/>
</g>
<defs>
<clipPath id="clip0_6_3567">
<rect width="16" height="16" fill="white"/>
</clipPath>
</defs>
</svg>
