<svg width="16" height="16" viewBox="0 0 16 16" fill="none" xmlns="http://www.w3.org/2000/svg">
<g clip-path="url(#clip0_6_3540)">
<path d="M14.6666 8H13.0133C12.722 7.99937 12.4384 8.0942 12.2061 8.26997C11.9737 8.44575 11.8053 8.69279 11.7266 8.97333L10.16 14.5467C10.1499 14.5813 10.1288 14.6117 10.1 14.6333C10.0711 14.655 10.036 14.6667 9.99998 14.6667C9.96392 14.6667 9.92883 14.655 9.89998 14.6333C9.87113 14.6117 9.85008 14.5813 9.83998 14.5467L6.15998 1.45333C6.14988 1.41871 6.12883 1.3883 6.09998 1.36666C6.07113 1.34502 6.03604 1.33333 5.99998 1.33333C5.96392 1.33333 5.92883 1.34502 5.89998 1.36666C5.87113 1.3883 5.85008 1.41871 5.83998 1.45333L4.27331 7.02666C4.19496 7.3061 4.02757 7.55234 3.79656 7.728C3.56554 7.90367 3.28353 7.99916 2.99331 8H1.33331" stroke="#FF6B35" stroke-width="1.33333" stroke-linecap="round" stroke-linejoin="round"/>
</g>
<defs>
<clipPath id="clip0_6_3540">
<rect width="16" height="16" fill="white"/>
</clipPath>
</defs>
</svg>
